<svg xmlns="http://www.w3.org/2000/svg" width="1005" height="600"><rect width="1005" height="600" x="0" y="0" fill="#FFFFFF" id="backgorund"/><g transform="translate(20,20)" id="viz"><g id="nodes"><g transform="translate(383.5,281)"><path id="p_944.5" d="M-5.143516556418883e-14,280A280,280,0,1,1,5.143516556418883e-14,-280A280,280,0,1,1,-5.143516556418883e-14,280Z" fill="none" stroke="#ccc"/></g><g transform="translate(306.13078958522965,281)" id="Asia"><path id="p_787.8438492811587" d="M-3.687039091555367e-14,200.71305969592905A200.71305969592905,200.71305969592905,0,1,1,3.687039091555367e-14,-200.71305969592905A200.71305969592905,200.71305969592905,0,1,1,-3.687039091555367e-14,200.71305969592905Z" fill="none" stroke="#ccc"/></g><g transform="translate(585.1719246405794,281)" id="North America"><path id="p_942.5822701106995" d="M-1.4036352750258896e-14,76.41034547012005A76.41034547012005,76.41034547012005,0,1,1,1.4036352750258896e-14,-76.41034547012005A76.41034547012005,76.41034547012005,0,1,1,-1.4036352750258896e-14,76.41034547012005Z" fill="none" stroke="#ccc"/></g><g transform="translate(528.345571149096,390.63247501784434)" id="Europe"><path id="p_964.1348444952605" d="M-8.295169279877962e-15,45.15679832832009A45.15679832832009,45.15679832832009,0,1,1,8.295169279877962e-15,-45.15679832832009A45.15679832832009,45.15679832832009,0,1,1,-8.295169279877962e-15,45.15679832832009Z" fill="none" stroke="#ccc"/></g><g transform="translate(528.2996580037374,171.50746502787698)" id="South America"><path id="p_744.8608531664951" d="M-8.276235959899564e-15,45.0537301348808A45.0537301348808,45.0537301348808,0,1,1,8.276235959899564e-15,-45.0537301348808A45.0537301348808,45.0537301348808,0,1,1,-8.276235959899564e-15,45.0537301348808Z" fill="none" stroke="#ccc"/></g><g transform="translate(472.7236901289009,104.75045363671015)" id="Africa"><path id="p_617.3657183137104" d="M-7.327963362491677e-15,39.891574548099314A39.891574548099314,39.891574548099314,0,1,1,7.327963362491677e-15,-39.891574548099314A39.891574548099314,39.891574548099314,0,1,1,-7.327963362491677e-15,39.891574548099314Z" fill="none" stroke="#ccc"/></g><g transform="translate(244.238520635213,284.9627022806956)" id="Shanghai"><path id="p_590.3008106375962" d="M-1.1223812179888159e-14,61.09958772168767A61.09958772168767,61.09958772168767,0,1,1,1.1223812179888159e-14,-61.09958772168767A61.09958772168767,61.09958772168767,0,1,1,-1.1223812179888159e-14,61.09958772168767Z" fill="#ff7f0e" stroke="none"/></g><g transform="translate(364.58111414133094,284.9627022806956)" id="Beijing"><path id="p_706.8690923171563" d="M-1.0530482345281422e-14,57.325275895129685A57.325275895129685,57.325275895129685,0,1,1,1.0530482345281422e-14,-57.325275895129685A57.325275895129685,57.325275895129685,0,1,1,-1.0530482345281422e-14,57.325275895129685Z" fill="#ff7f0e" stroke="none"/></g><g transform="translate(307.98762680446794,381.8326127981784)" id="Guangzhou"><path id="p_742.7672617735241" d="M-9.726210183892408e-15,52.94702217087776A52.94702217087776,52.94702217087776,0,1,1,9.726210183892408e-15,-52.94702217087776A52.94702217087776,52.94702217087776,0,1,1,-9.726210183892408e-15,52.94702217087776Z" fill="#ff7f0e" stroke="none"/></g><g transform="translate(307.77830146627207,196.04129380506376)" id="Tokyo"><path id="p_550.0923533001293" d="M-8.50016775115228e-15,46.27275802879343A46.27275802879343,46.27275802879343,0,1,1,8.50016775115228e-15,-46.27275802879343A46.27275802879343,46.27275802879343,0,1,1,-8.50016775115228e-15,46.27275802879343Z" fill="#ff7f0e" stroke="none"/></g><g transform="translate(216.65258675659214,181.46497858865422)" id="Xi'an"><path id="p_442.2112301655186" d="M-8.0998748227234e-15,44.09366482027226A44.09366482027226,44.09366482027226,0,1,1,8.0998748227234e-15,-44.09366482027226A44.09366482027226,44.09366482027226,0,1,1,-8.0998748227234e-15,44.09366482027226Z" fill="#ff7f0e" stroke="none"/></g><g transform="translate(210.17181202990412,385.37355808158344)" id="Bangalore"><path id="p_638.5605031836072" d="M-7.901751754750325e-15,43.01513307211969A43.01513307211969,43.01513307211969,0,1,1,7.901751754750325e-15,-43.01513307211969A43.01513307211969,43.01513307211969,0,1,1,-7.901751754750325e-15,43.01513307211969Z" fill="#ff7f0e" stroke="none"/></g><g transform="translate(395.6351646455781,190.89617672877532)" id="Jakarta"><path id="p_626.3482431314225" d="M-7.3142461933139e-15,39.81690175706913A39.81690175706913,39.81690175706913,0,1,1,7.3142461933139e-15,-39.81690175706913A39.81690175706913,39.81690175706913,0,1,1,-7.3142461933139e-15,39.81690175706913Z" fill="#ff7f0e" stroke="none"/></g><g transform="translate(402.3299365145522,376.35304107684345)" id="Dongguan"><path id="p_818.3195329702296" d="M-7.281117101087357e-15,39.63655537883388A39.63655537883388,39.63655537883388,0,1,1,7.281117101087357e-15,-39.63655537883388A39.63655537883388,39.63655537883388,0,1,1,-7.281117101087357e-15,39.63655537883388Z" fill="#ff7f0e" stroke="none"/></g><g transform="translate(152.91925071040478,238.4343172661873)" id="Ho Chi Minh City"><path id="p_430.82576042228385" d="M-7.250924120091705e-15,39.472192445691725A39.472192445691725,39.472192445691725,0,1,1,7.250924120091705e-15,-39.472192445691725A39.472192445691725,39.472192445691725,0,1,1,-7.250924120091705e-15,39.472192445691725Z" fill="#ff7f0e" stroke="none"/></g><g transform="translate(455.02501967408347,245.9582309888866)" id="Chennai"><path id="p_740.2361779355499" d="M-7.210645761229319e-15,39.25292727257988A39.25292727257988,39.25292727257988,0,1,1,7.210645761229319e-15,-39.25292727257988A39.25292727257988,39.25292727257988,0,1,1,-7.210645761229319e-15,39.25292727257988Z" fill="#ff7f0e" stroke="none"/></g><g transform="translate(151.9208889742248,326.2084929943677)" id="Seoul"><path id="p_516.2246766623506" d="M-6.997992106392895e-15,38.09529469375807A38.09529469375807,38.09529469375807,0,1,1,6.997992106392895e-15,-38.09529469375807A38.09529469375807,38.09529469375807,0,1,1,-6.997992106392895e-15,38.09529469375807Z" fill="#ff7f0e" stroke="none"/></g><g transform="translate(461.6338429771139,324.24224604117717)" id="Nanjing"><path id="p_823.2679137301265" d="M-6.868766767144218e-15,37.3918247118354A37.3918247118354,37.3918247118354,0,1,1,6.868766767144218e-15,-37.3918247118354A37.3918247118354,37.3918247118354,0,1,1,-6.868766767144218e-15,37.3918247118354Z" fill="#ff7f0e" stroke="none"/></g><g transform="translate(271.05483011391397,121.19153160537624)" id="Hanoi"><path id="p_427.42913240080503" d="M-6.4629701250378615e-15,35.182770681514775A35.182770681514775,35.182770681514775,0,1,1,6.4629701250378615e-15,-35.182770681514775A35.182770681514775,35.182770681514775,0,1,1,-6.4629701250378615e-15,35.182770681514775Z" fill="#ff7f0e" stroke="none"/></g><g transform="translate(547.8603091803535,281)" id="Mexico City"><path id="p_866.0413093009471" d="M-6.830038918017338e-15,37.18100012059356A37.18100012059356,37.18100012059356,0,1,1,6.830038918017338e-15,-37.18100012059356A37.18100012059356,37.18100012059356,0,1,1,-6.830038918017338e-15,37.18100012059356Z" fill="#d62728" stroke="none"/></g><g transform="translate(623.3117897058232,281)" id="New York City"><path id="p_940.6645402213989" d="M-6.677891933865299e-15,36.352750515575636A36.352750515575636,36.352750515575636,0,1,1,6.677891933865299e-15,-36.352750515575636A36.352750515575636,36.352750515575636,0,1,1,-6.677891933865299e-15,36.352750515575636Z" fill="#d62728" stroke="none"/></g><g transform="translate(528.345571149096,390.63247501784434)" id="Moscow"><path id="p_962.21711460596" d="M-7.942888014293792e-15,43.23906843901953A43.23906843901953,43.23906843901953,0,1,1,7.942888014293792e-15,-43.23906843901953A43.23906843901953,43.23906843901953,0,1,1,-7.942888014293792e-15,43.23906843901953Z" fill="#2ca02c" stroke="none"/></g><g transform="translate(528.2996580037374,171.50746502787698)" id="São Paulo"><path id="p_742.9431232771946" d="M-7.923954694315391e-15,43.13600024558024A43.13600024558024,43.13600024558024,0,1,1,7.923954694315391e-15,-43.13600024558024A43.13600024558024,43.13600024558024,0,1,1,-7.923954694315391e-15,43.13600024558024Z" fill="#9467bd" stroke="none"/></g><g transform="translate(472.7236901289009,104.75045363671015)" id="Cairo"><path id="p_615.4479884244098" d="M-6.9756820969075045e-15,37.97384465879875A37.97384465879875,37.97384465879875,0,1,1,6.9756820969075045e-15,-37.97384465879875A37.97384465879875,37.97384465879875,0,1,1,-6.9756820969075045e-15,37.97384465879875Z" fill="#1f77b4" stroke="none"/></g></g><g id="labels"><g transform="translate(244.238520635213,284.9627022806956)"><text text-anchor="middle" dominant-baseline="text-before-edge" transform="translate(0,-6)"><tspan x="0" y="0" dy="0" style="font-family: Arial, sans-serif; font-size: 10px; fill: black; font-weight: bold;">Shanghai</tspan></text></g><g transform="translate(364.58111414133094,284.9627022806956)"><text text-anchor="middle" dominant-baseline="text-before-edge" transform="translate(0,-6)"><tspan x="0" y="0" dy="0" style="font-family: Arial, sans-serif; font-size: 10px; fill: black; font-weight: bold;">Beijing</tspan></text></g><g transform="translate(307.98762680446794,381.8326127981784)"><text text-anchor="middle" dominant-baseline="text-before-edge" transform="translate(0,-6)"><tspan x="0" y="0" dy="0" style="font-family: Arial, sans-serif; font-size: 10px; fill: black; font-weight: bold;">Guangzhou</tspan></text></g><g transform="translate(307.77830146627207,196.04129380506376)"><text text-anchor="middle" dominant-baseline="text-before-edge" transform="translate(0,-6)"><tspan x="0" y="0" dy="0" style="font-family: Arial, sans-serif; font-size: 10px; fill: black; font-weight: bold;">Tokyo</tspan></text></g><g transform="translate(216.65258675659214,181.46497858865422)"><text text-anchor="middle" dominant-baseline="text-before-edge" transform="translate(0,-6)"><tspan x="0" y="0" dy="0" style="font-family: Arial, sans-serif; font-size: 10px; fill: black; font-weight: bold;">Xi'an</tspan></text></g><g transform="translate(210.17181202990412,385.37355808158344)"><text text-anchor="middle" dominant-baseline="text-before-edge" transform="translate(0,-6)"><tspan x="0" y="0" dy="0" style="font-family: Arial, sans-serif; font-size: 10px; fill: black; font-weight: bold;">Bangalore</tspan></text></g><g transform="translate(395.6351646455781,190.89617672877532)"><text text-anchor="middle" dominant-baseline="text-before-edge" transform="translate(0,-6)"><tspan x="0" y="0" dy="0" style="font-family: Arial, sans-serif; font-size: 10px; fill: black; font-weight: bold;">Jakarta</tspan></text></g><g transform="translate(402.3299365145522,376.35304107684345)"><text text-anchor="middle" dominant-baseline="text-before-edge" transform="translate(0,-6)"><tspan x="0" y="0" dy="0" style="font-family: Arial, sans-serif; font-size: 10px; fill: black; font-weight: bold;">Dongguan</tspan></text></g><g transform="translate(152.91925071040478,238.4343172661873)"><text text-anchor="middle" dominant-baseline="text-before-edge" transform="translate(0,-6)"><tspan x="0" y="0" dy="0" style="font-family: Arial, sans-serif; font-size: 10px; fill: black; font-weight: bold;">Ho Chi Minh City</tspan></text></g><g transform="translate(455.02501967408347,245.9582309888866)"><text text-anchor="middle" dominant-baseline="text-before-edge" transform="translate(0,-6)"><tspan x="0" y="0" dy="0" style="font-family: Arial, sans-serif; font-size: 10px; fill: black; font-weight: bold;">Chennai</tspan></text></g><g transform="translate(151.9208889742248,326.2084929943677)"><text text-anchor="middle" dominant-baseline="text-before-edge" transform="translate(0,-6)"><tspan x="0" y="0" dy="0" style="font-family: Arial, sans-serif; font-size: 10px; fill: black; font-weight: bold;">Seoul</tspan></text></g><g transform="translate(461.6338429771139,324.24224604117717)"><text text-anchor="middle" dominant-baseline="text-before-edge" transform="translate(0,-6)"><tspan x="0" y="0" dy="0" style="font-family: Arial, sans-serif; font-size: 10px; fill: black; font-weight: bold;">Nanjing</tspan></text></g><g transform="translate(271.05483011391397,121.19153160537624)"><text text-anchor="middle" dominant-baseline="text-before-edge" transform="translate(0,-6)"><tspan x="0" y="0" dy="0" style="font-family: Arial, sans-serif; font-size: 10px; fill: black; font-weight: bold;">Hanoi</tspan></text></g><g transform="translate(547.8603091803535,281)"><text text-anchor="middle" dominant-baseline="text-before-edge" transform="translate(0,-6)"><tspan x="0" y="0" dy="0" style="font-family: Arial, sans-serif; font-size: 10px; fill: black; font-weight: bold;">Mexico City</tspan></text></g><g transform="translate(623.3117897058232,281)"><text text-anchor="middle" dominant-baseline="text-before-edge" transform="translate(0,-6)"><tspan x="0" y="0" dy="0" style="font-family: Arial, sans-serif; font-size: 10px; fill: black; font-weight: bold;">New York City</tspan></text></g><g transform="translate(528.345571149096,390.63247501784434)"><text text-anchor="middle" dominant-baseline="text-before-edge" transform="translate(0,-6)"><tspan x="0" y="0" dy="0" style="font-family: Arial, sans-serif; font-size: 10px; fill: black; font-weight: bold;">Moscow</tspan></text></g><g transform="translate(528.2996580037374,171.50746502787698)"><text text-anchor="middle" dominant-baseline="text-before-edge" transform="translate(0,-6)"><tspan x="0" y="0" dy="0" style="font-family: Arial, sans-serif; font-size: 10px; fill: black; font-weight: bold;">São Paulo</tspan></text></g><g transform="translate(472.7236901289009,104.75045363671015)"><text text-anchor="middle" dominant-baseline="text-before-edge" transform="translate(0,-6)"><tspan x="0" y="0" dy="0" style="font-family: Arial, sans-serif; font-size: 10px; fill: black; font-weight: bold;">Cairo</tspan></text></g></g></g><g id="legend" transform="translate(805,20)"><g transform="translate(5,0)"><g class="legendSize" transform="translate(0,0)"><g class="legendCells" transform="translate(50,16.5)"><g class="cell" transform="translate(0, 25)"><circle class="swatch" r="25" fill="none" stroke="#ccc"/><text class="label" transform="translate( 55,&#xA;          5)" font-family="&quot;Arial&quot;, sans-serif" font-size="10px"><tspan x="0" dy="0em">4163848.0</tspan></text></g><g class="cell" transform="translate(0, 125)"><circle class="swatch" r="50" fill="none" stroke="#ccc"/><text class="label" transform="translate( 55,&#xA;          5)" font-family="&quot;Arial&quot;, sans-serif" font-size="10px"><tspan x="0" dy="0em">16655392.2</tspan></text></g></g><text class="legendTitle" font-family="&quot;Arial&quot;, sans-serif" font-size="12px" font-weight="bold"><tspan x="0" dy="0em">population [sum]</tspan></text></g><g class="legendColor" transform="translate(0,224.5)"><g class="legendCells" transform="translate(0,16.5)"><g class="cell" transform="translate(0, 0)"><rect class="swatch" height="15" width="15" style="fill: rgb(31, 119, 180);"/><text class="label" transform="translate( 20, 12.5)" font-family="&quot;Arial&quot;, sans-serif" font-size="10px"><tspan x="0" dy="0em">Africa</tspan></text></g><g class="cell" transform="translate(0, 21.5)"><rect class="swatch" height="15" width="15" style="fill: rgb(255, 127, 14);"/><text class="label" transform="translate( 20, 12.5)" font-family="&quot;Arial&quot;, sans-serif" font-size="10px"><tspan x="0" dy="0em">Asia</tspan></text></g><g class="cell" transform="translate(0, 43)"><rect class="swatch" height="15" width="15" style="fill: rgb(44, 160, 44);"/><text class="label" transform="translate( 20, 12.5)" font-family="&quot;Arial&quot;, sans-serif" font-size="10px"><tspan x="0" dy="0em">Europe</tspan></text></g><g class="cell" transform="translate(0, 64.5)"><rect class="swatch" height="15" width="15" style="fill: rgb(214, 39, 40);"/><text class="label" transform="translate( 20, 12.5)" font-family="&quot;Arial&quot;, sans-serif" font-size="10px"><tspan x="0" dy="0em">North America</tspan></text></g><g class="cell" transform="translate(0, 86)"><rect class="swatch" height="15" width="15" style="fill: rgb(148, 103, 189);"/><text class="label" transform="translate( 20, 12.5)" font-family="&quot;Arial&quot;, sans-serif" font-size="10px"><tspan x="0" dy="0em">South America</tspan></text></g></g><text class="legendTitle" font-family="&quot;Arial&quot;, sans-serif" font-size="12px" font-weight="bold"><tspan x="0" dy="0em">continentLabel [csvDistinct]</tspan></text></g></g></g></svg>