<svg xmlns="http://www.w3.org/2000/svg" width="1005" height="650"><rect width="1005" height="650" x="0" y="0" fill="#FFFFFF" id="background"/><g transform="translate(70,50)" id="visualization"><g id="axis"><g transform="translate(0,530)" fill="none" font-size="10" font-family="sans-serif" text-anchor="middle"><path class="domain" stroke="currentColor" d="M0,6V0H685V6"/><g class="tick" opacity="1" transform="translate(0,0)"><line stroke="currentColor" y2="6"/><text fill="currentColor" y="9" dy="0.71em">100</text></g><g class="tick" opacity="1" transform="translate(62,0)"><line stroke="currentColor" y2="6"/><text fill="currentColor" y="9" dy="0.71em">120</text></g><g class="tick" opacity="1" transform="translate(125,0)"><line stroke="currentColor" y2="6"/><text fill="currentColor" y="9" dy="0.71em">140</text></g><g class="tick" opacity="1" transform="translate(187,0)"><line stroke="currentColor" y2="6"/><text fill="currentColor" y="9" dy="0.71em">160</text></g><g class="tick" opacity="1" transform="translate(249,0)"><line stroke="currentColor" y2="6"/><text fill="currentColor" y="9" dy="0.71em">180</text></g><g class="tick" opacity="1" transform="translate(311,0)"><line stroke="currentColor" y2="6"/><text fill="currentColor" y="9" dy="0.71em">200</text></g><g class="tick" opacity="1" transform="translate(374,0)"><line stroke="currentColor" y2="6"/><text fill="currentColor" y="9" dy="0.71em">220</text></g><g class="tick" opacity="1" transform="translate(436,0)"><line stroke="currentColor" y2="6"/><text fill="currentColor" y="9" dy="0.71em">240</text></g><g class="tick" opacity="1" transform="translate(498,0)"><line stroke="currentColor" y2="6"/><text fill="currentColor" y="9" dy="0.71em">260</text></g><g class="tick" opacity="1" transform="translate(560,0)"><line stroke="currentColor" y2="6"/><text fill="currentColor" y="9" dy="0.71em">280</text></g><g class="tick" opacity="1" transform="translate(623,0)"><line stroke="currentColor" y2="6"/><text fill="currentColor" y="9" dy="0.71em">300</text></g><g class="tick" opacity="1" transform="translate(685,0)"><line stroke="currentColor" y2="6"/><text fill="currentColor" y="9" dy="0.71em">320</text></g><text x="685" dy="-5" text-anchor="end" style="font-family: Arial, sans-serif; font-size: 12px; fill: rgb(123, 123, 123); font-weight: bold;">Length.</text></g><g fill="none" font-size="10" font-family="sans-serif" text-anchor="end"><path class="domain" stroke="currentColor" d="M-6,530H0V0H-6"/><g class="tick" opacity="1" transform="translate(0,530)"><line stroke="currentColor" x2="-6"/><text fill="currentColor" x="-9" dy="0.32em">25</text></g><g class="tick" opacity="1" transform="translate(0,489)"><line stroke="currentColor" x2="-6"/><text fill="currentColor" x="-9" dy="0.32em">30</text></g><g class="tick" opacity="1" transform="translate(0,448)"><line stroke="currentColor" x2="-6"/><text fill="currentColor" x="-9" dy="0.32em">35</text></g><g class="tick" opacity="1" transform="translate(0,408)"><line stroke="currentColor" x2="-6"/><text fill="currentColor" x="-9" dy="0.32em">40</text></g><g class="tick" opacity="1" transform="translate(0,367)"><line stroke="currentColor" x2="-6"/><text fill="currentColor" x="-9" dy="0.32em">45</text></g><g class="tick" opacity="1" transform="translate(0,326)"><line stroke="currentColor" x2="-6"/><text fill="currentColor" x="-9" dy="0.32em">50</text></g><g class="tick" opacity="1" transform="translate(0,285)"><line stroke="currentColor" x2="-6"/><text fill="currentColor" x="-9" dy="0.32em">55</text></g><g class="tick" opacity="1" transform="translate(0,245)"><line stroke="currentColor" x2="-6"/><text fill="currentColor" x="-9" dy="0.32em">60</text></g><g class="tick" opacity="1" transform="translate(0,204)"><line stroke="currentColor" x2="-6"/><text fill="currentColor" x="-9" dy="0.32em">65</text></g><g class="tick" opacity="1" transform="translate(0,163)"><line stroke="currentColor" x2="-6"/><text fill="currentColor" x="-9" dy="0.32em">70</text></g><g class="tick" opacity="1" transform="translate(0,122)"><line stroke="currentColor" x2="-6"/><text fill="currentColor" x="-9" dy="0.32em">75</text></g><g class="tick" opacity="1" transform="translate(0,82)"><line stroke="currentColor" x2="-6"/><text fill="currentColor" x="-9" dy="0.32em">80</text></g><g class="tick" opacity="1" transform="translate(0,41)"><line stroke="currentColor" x2="-6"/><text fill="currentColor" x="-9" dy="0.32em">85</text></g><g class="tick" opacity="1" transform="translate(0,0)"><line stroke="currentColor" x2="-6"/><text fill="currentColor" x="-9" dy="0.32em">90</text></g><text x="4" text-anchor="start" dominant-baseline="hanging" style="font-family: Arial, sans-serif; font-size: 12px; fill: rgb(123, 123, 123); font-weight: bold;">Danceability</text></g></g><g id="viz"><g><circle cx="651" cy="73" fill="rgb(74, 108, 174)" r="10" stroke="none"/><circle cx="651" cy="73" fill="black" r="2.5"/></g><g><circle cx="629" cy="90" fill="rgb(74, 108, 174)" r="9" stroke="none"/><circle cx="629" cy="90" fill="black" r="2.5"/></g><g><circle cx="470" cy="236" fill="rgb(66, 136, 181)" r="9" stroke="none"/><circle cx="470" cy="236" fill="black" r="2.5"/></g><g><circle cx="585" cy="139" fill="rgb(169, 221, 162)" r="9" stroke="none"/><circle cx="585" cy="139" fill="black" r="2.5"/></g><g><circle cx="501" cy="163" fill="rgb(254, 221, 141)" r="9" stroke="none"/><circle cx="501" cy="163" fill="black" r="2.5"/></g><g><circle cx="517" cy="82" fill="rgb(200, 233, 159)" r="9" stroke="none"/><circle cx="517" cy="82" fill="black" r="2.5"/></g><g><circle cx="305" cy="212" fill="rgb(137, 207, 165)" r="8" stroke="none"/><circle cx="305" cy="212" fill="black" r="2.5"/></g><g><circle cx="374" cy="82" fill="rgb(137, 207, 165)" r="8" stroke="none"/><circle cx="374" cy="82" fill="black" r="2.5"/></g><g><circle cx="318" cy="342" fill="rgb(137, 207, 165)" r="8" stroke="none"/><circle cx="318" cy="342" fill="black" r="2.5"/></g><g><circle cx="293" cy="163" fill="rgb(241, 249, 171)" r="8" stroke="none"/><circle cx="293" cy="163" fill="black" r="2.5"/></g><g><circle cx="327" cy="57" fill="rgb(248, 142, 83)" r="8" stroke="none"/><circle cx="327" cy="57" fill="black" r="2.5"/></g><g><circle cx="445" cy="122" fill="rgb(200, 233, 159)" r="8" stroke="none"/><circle cx="445" cy="122" fill="black" r="2.5"/></g><g><circle cx="296" cy="188" fill="rgb(241, 249, 171)" r="8" stroke="none"/><circle cx="296" cy="188" fill="black" r="2.5"/></g><g><circle cx="343" cy="65" fill="rgb(185, 31, 72)" r="8" stroke="none"/><circle cx="343" cy="65" fill="black" r="2.5"/></g><g><circle cx="352" cy="139" fill="rgb(248, 142, 83)" r="8" stroke="none"/><circle cx="352" cy="139" fill="black" r="2.5"/></g><g><circle cx="290" cy="130" fill="rgb(200, 233, 159)" r="8" stroke="none"/><circle cx="290" cy="130" fill="black" r="2.5"/></g><g><circle cx="380" cy="212" fill="rgb(200, 233, 159)" r="8" stroke="none"/><circle cx="380" cy="212" fill="black" r="2.5"/></g><g><circle cx="343" cy="497" fill="rgb(251, 248, 176)" r="8" stroke="none"/><circle cx="343" cy="497" fill="black" r="2.5"/></g><g><circle cx="311" cy="82" fill="rgb(158, 1, 66)" r="8" stroke="none"/><circle cx="311" cy="82" fill="black" r="2.5"/></g><g><circle cx="386" cy="106" fill="rgb(254, 221, 141)" r="8" stroke="none"/><circle cx="386" cy="106" fill="black" r="2.5"/></g><g><circle cx="392" cy="122" fill="rgb(169, 221, 162)" r="8" stroke="none"/><circle cx="392" cy="122" fill="black" r="2.5"/></g><g><circle cx="308" cy="73" fill="rgb(254, 221, 141)" r="8" stroke="none"/><circle cx="308" cy="73" fill="black" r="2.5"/></g><g><circle cx="399" cy="171" fill="rgb(251, 248, 176)" r="8" stroke="none"/><circle cx="399" cy="171" fill="black" r="2.5"/></g><g><circle cx="361" cy="269" fill="rgb(254, 221, 141)" r="8" stroke="none"/><circle cx="361" cy="269" fill="black" r="2.5"/></g><g><circle cx="305" cy="0" fill="rgb(137, 207, 165)" r="8" stroke="none"/><circle cx="305" cy="0" fill="black" r="2.5"/></g><g><circle cx="318" cy="188" fill="rgb(200, 233, 159)" r="8" stroke="none"/><circle cx="318" cy="188" fill="black" r="2.5"/></g><g><circle cx="355" cy="171" fill="rgb(240, 112, 74)" r="8" stroke="none"/><circle cx="355" cy="171" fill="black" r="2.5"/></g><g><circle cx="367" cy="253" fill="rgb(251, 248, 176)" r="8" stroke="none"/><circle cx="367" cy="253" fill="black" r="2.5"/></g><g><circle cx="330" cy="122" fill="rgb(137, 207, 165)" r="8" stroke="none"/><circle cx="330" cy="122" fill="black" r="2.5"/></g><g><circle cx="283" cy="114" fill="rgb(252, 172, 99)" r="7" stroke="none"/><circle cx="283" cy="114" fill="black" r="2.5"/></g><g><circle cx="268" cy="408" fill="rgb(254, 221, 141)" r="7" stroke="none"/><circle cx="268" cy="408" fill="black" r="2.5"/></g><g><circle cx="234" cy="261" fill="rgb(254, 238, 163)" r="7" stroke="none"/><circle cx="234" cy="261" fill="black" r="2.5"/></g><g><circle cx="177" cy="16" fill="rgb(253, 198, 118)" r="7" stroke="none"/><circle cx="177" cy="16" fill="black" r="2.5"/></g><g><circle cx="265" cy="65" fill="rgb(254, 221, 141)" r="7" stroke="none"/><circle cx="265" cy="65" fill="black" r="2.5"/></g><g><circle cx="255" cy="326" fill="rgb(137, 207, 165)" r="7" stroke="none"/><circle cx="255" cy="326" fill="black" r="2.5"/></g><g><circle cx="181" cy="114" fill="rgb(254, 238, 163)" r="7" stroke="none"/><circle cx="181" cy="114" fill="black" r="2.5"/></g><g><circle cx="190" cy="49" fill="rgb(248, 142, 83)" r="7" stroke="none"/><circle cx="190" cy="49" fill="black" r="2.5"/></g><g><circle cx="227" cy="147" fill="rgb(224, 243, 161)" r="7" stroke="none"/><circle cx="227" cy="147" fill="black" r="2.5"/></g><g><circle cx="165" cy="179" fill="rgb(105, 189, 169)" r="7" stroke="none"/><circle cx="165" cy="179" fill="black" r="2.5"/></g><g><circle cx="283" cy="171" fill="rgb(252, 172, 99)" r="7" stroke="none"/><circle cx="283" cy="171" fill="black" r="2.5"/></g><g><circle cx="246" cy="98" fill="rgb(254, 221, 141)" r="7" stroke="none"/><circle cx="246" cy="98" fill="black" r="2.5"/></g><g><circle cx="237" cy="98" fill="rgb(66, 136, 181)" r="7" stroke="none"/><circle cx="237" cy="98" fill="black" r="2.5"/></g><g><circle cx="199" cy="196" fill="rgb(209, 60, 75)" r="7" stroke="none"/><circle cx="199" cy="196" fill="black" r="2.5"/></g><g><circle cx="193" cy="147" fill="rgb(137, 207, 165)" r="7" stroke="none"/><circle cx="193" cy="147" fill="black" r="2.5"/></g><g><circle cx="252" cy="49" fill="rgb(228, 86, 73)" r="7" stroke="none"/><circle cx="252" cy="49" fill="black" r="2.5"/></g><g><circle cx="221" cy="106" fill="rgb(254, 221, 141)" r="7" stroke="none"/><circle cx="221" cy="106" fill="black" r="2.5"/></g><g><circle cx="193" cy="16" fill="rgb(78, 164, 176)" r="7" stroke="none"/><circle cx="193" cy="16" fill="black" r="2.5"/></g><g><circle cx="255" cy="196" fill="rgb(240, 112, 74)" r="7" stroke="none"/><circle cx="255" cy="196" fill="black" r="2.5"/></g><g><circle cx="97" cy="122" fill="rgb(94, 79, 162)" r="6" stroke="none"/><circle cx="97" cy="122" fill="black" r="2.5"/></g><g><circle cx="47" cy="163" fill="rgb(253, 198, 118)" r="6" stroke="none"/><circle cx="47" cy="163" fill="black" r="2.5"/></g></g><g id="labels"><g transform="translate(651,73)"><text x="0" y="0" text-anchor="middle" dominant-baseline="text-before-edge" transform="translate(0,-6)" style="stroke-width: 2px; paint-order: stroke; stroke: white; stroke-linecap: round; stroke-linejoin: round; opacity: 1;"><tspan x="0" y="0" dy="0" style="font-family: Arial, sans-serif; font-size: 10px; fill: black; font-weight: normal;">No Me Conoce - Remix</tspan></text></g><g transform="translate(629,90)"><text x="0" y="0" text-anchor="middle" dominant-baseline="text-before-edge" transform="translate(0,-6)" style="stroke-width: 2px; paint-order: stroke; stroke: white; stroke-linecap: round; stroke-linejoin: round; opacity: 1;"><tspan x="0" y="0" dy="0" style="font-family: Arial, sans-serif; font-size: 10px; fill: black; font-weight: normal;">China</tspan></text></g><g transform="translate(470,236)"><text x="0" y="0" text-anchor="middle" dominant-baseline="text-before-edge" transform="translate(0,-6)" style="stroke-width: 2px; paint-order: stroke; stroke: white; stroke-linecap: round; stroke-linejoin: round; opacity: 1;"><tspan x="0" y="0" dy="0" style="font-family: Arial, sans-serif; font-size: 10px; fill: black; font-weight: normal;">Callaita</tspan></text></g><g transform="translate(585,139)"><text x="0" y="0" text-anchor="middle" dominant-baseline="text-before-edge" transform="translate(0,-6)" style="stroke-width: 2px; paint-order: stroke; stroke: white; stroke-linecap: round; stroke-linejoin: round; opacity: 1;"><tspan x="0" y="0" dy="0" style="font-family: Arial, sans-serif; font-size: 10px; fill: black; font-weight: normal;">Otro Trago - Remix</tspan></text></g><g transform="translate(501,163)"><text x="0" y="0" text-anchor="middle" dominant-baseline="text-before-edge" transform="translate(0,-6)" style="stroke-width: 2px; paint-order: stroke; stroke: white; stroke-linecap: round; stroke-linejoin: round; opacity: 1;"><tspan x="0" y="0" dy="0" style="font-family: Arial, sans-serif; font-size: 10px; fill: black; font-weight: normal;">No Guidance (feat. Drake)</tspan></text></g><g transform="translate(517,82)"><text x="0" y="0" text-anchor="middle" dominant-baseline="text-before-edge" transform="translate(0,-6)" style="stroke-width: 2px; paint-order: stroke; stroke: white; stroke-linecap: round; stroke-linejoin: round; opacity: 1;"><tspan x="0" y="0" dy="0" style="font-family: Arial, sans-serif; font-size: 10px; fill: black; font-weight: normal;">Soltera - Remix</tspan></text></g><g transform="translate(305,212)"><text x="0" y="0" text-anchor="middle" dominant-baseline="text-before-edge" transform="translate(0,-6)" style="stroke-width: 2px; paint-order: stroke; stroke: white; stroke-linecap: round; stroke-linejoin: round; opacity: 0;"><tspan x="0" y="0" dy="0" style="font-family: Arial, sans-serif; font-size: 10px; fill: black; font-weight: normal;">Beautiful People (feat. Khalid)</tspan></text></g><g transform="translate(374,82)"><text x="0" y="0" text-anchor="middle" dominant-baseline="text-before-edge" transform="translate(0,-6)" style="stroke-width: 2px; paint-order: stroke; stroke: white; stroke-linecap: round; stroke-linejoin: round; opacity: 1;"><tspan x="0" y="0" dy="0" style="font-family: Arial, sans-serif; font-size: 10px; fill: black; font-weight: normal;">I Don't Care (with Justin Bieber)</tspan></text></g><g transform="translate(318,342)"><text x="0" y="0" text-anchor="middle" dominant-baseline="text-before-edge" transform="translate(0,-6)" style="stroke-width: 2px; paint-order: stroke; stroke: white; stroke-linecap: round; stroke-linejoin: round; opacity: 1;"><tspan x="0" y="0" dy="0" style="font-family: Arial, sans-serif; font-size: 10px; fill: black; font-weight: normal;">How Do You Sleep?</tspan></text></g><g transform="translate(293,163)"><text x="0" y="0" text-anchor="middle" dominant-baseline="text-before-edge" transform="translate(0,-6)" style="stroke-width: 2px; paint-order: stroke; stroke: white; stroke-linecap: round; stroke-linejoin: round; opacity: 1;"><tspan x="0" y="0" dy="0" style="font-family: Arial, sans-serif; font-size: 10px; fill: black; font-weight: normal;">bad guy</tspan></text></g><g transform="translate(327,57)"><text x="0" y="0" text-anchor="middle" dominant-baseline="text-before-edge" transform="translate(0,-6)" style="stroke-width: 2px; paint-order: stroke; stroke: white; stroke-linecap: round; stroke-linejoin: round; opacity: 0;"><tspan x="0" y="0" dy="0" style="font-family: Arial, sans-serif; font-size: 10px; fill: black; font-weight: normal;">Money In The Grave (Drake ft. Rick Ross)</tspan></text></g><g transform="translate(445,122)"><text x="0" y="0" text-anchor="middle" dominant-baseline="text-before-edge" transform="translate(0,-6)" style="stroke-width: 2px; paint-order: stroke; stroke: white; stroke-linecap: round; stroke-linejoin: round; opacity: 1;"><tspan x="0" y="0" dy="0" style="font-family: Arial, sans-serif; font-size: 10px; fill: black; font-weight: normal;">LA CANCIÓN</tspan></text></g><g transform="translate(296,188)"><text x="0" y="0" text-anchor="middle" dominant-baseline="text-before-edge" transform="translate(0,-6)" style="stroke-width: 2px; paint-order: stroke; stroke: white; stroke-linecap: round; stroke-linejoin: round; opacity: 0;"><tspan x="0" y="0" dy="0" style="font-family: Arial, sans-serif; font-size: 10px; fill: black; font-weight: normal;">bad guy (with Justin Bieber)</tspan></text></g><g transform="translate(343,65)"><text x="0" y="0" text-anchor="middle" dominant-baseline="text-before-edge" transform="translate(0,-6)" style="stroke-width: 2px; paint-order: stroke; stroke: white; stroke-linecap: round; stroke-linejoin: round; opacity: 1;"><tspan x="0" y="0" dy="0" style="font-family: Arial, sans-serif; font-size: 10px; fill: black; font-weight: normal;">Dance Monkey</tspan></text></g><g transform="translate(352,139)"><text x="0" y="0" text-anchor="middle" dominant-baseline="text-before-edge" transform="translate(0,-6)" style="stroke-width: 2px; paint-order: stroke; stroke: white; stroke-linecap: round; stroke-linejoin: round; opacity: 1;"><tspan x="0" y="0" dy="0" style="font-family: Arial, sans-serif; font-size: 10px; fill: black; font-weight: normal;">It's You</tspan></text></g><g transform="translate(290,130)"><text x="0" y="0" text-anchor="middle" dominant-baseline="text-before-edge" transform="translate(0,-6)" style="stroke-width: 2px; paint-order: stroke; stroke: white; stroke-linecap: round; stroke-linejoin: round; opacity: 1;"><tspan x="0" y="0" dy="0" style="font-family: Arial, sans-serif; font-size: 10px; fill: black; font-weight: normal;">Con Calma</tspan></text></g><g transform="translate(380,212)"><text x="0" y="0" text-anchor="middle" dominant-baseline="text-before-edge" transform="translate(0,-6)" style="stroke-width: 2px; paint-order: stroke; stroke: white; stroke-linecap: round; stroke-linejoin: round; opacity: 1;"><tspan x="0" y="0" dy="0" style="font-family: Arial, sans-serif; font-size: 10px; fill: black; font-weight: normal;">QUE PRETENDES</tspan></text></g><g transform="translate(343,497)"><text x="0" y="0" text-anchor="middle" dominant-baseline="text-before-edge" transform="translate(0,-6)" style="stroke-width: 2px; paint-order: stroke; stroke: white; stroke-linecap: round; stroke-linejoin: round; opacity: 1;"><tspan x="0" y="0" dy="0" style="font-family: Arial, sans-serif; font-size: 10px; fill: black; font-weight: normal;">Takeaway</tspan></text></g><g transform="translate(311,82)"><text x="0" y="0" text-anchor="middle" dominant-baseline="text-before-edge" transform="translate(0,-6)" style="stroke-width: 2px; paint-order: stroke; stroke: white; stroke-linecap: round; stroke-linejoin: round; opacity: 0;"><tspan x="0" y="0" dy="0" style="font-family: Arial, sans-serif; font-size: 10px; fill: black; font-weight: normal;">The London (feat. J. Cole &amp; Travis Scott)</tspan></text></g><g transform="translate(386,106)"><text x="0" y="0" text-anchor="middle" dominant-baseline="text-before-edge" transform="translate(0,-6)" style="stroke-width: 2px; paint-order: stroke; stroke: white; stroke-linecap: round; stroke-linejoin: round; opacity: 1;"><tspan x="0" y="0" dy="0" style="font-family: Arial, sans-serif; font-size: 10px; fill: black; font-weight: normal;">Never Really Over</tspan></text></g><g transform="translate(392,122)"><text x="0" y="0" text-anchor="middle" dominant-baseline="text-before-edge" transform="translate(0,-6)" style="stroke-width: 2px; paint-order: stroke; stroke: white; stroke-linecap: round; stroke-linejoin: round; opacity: 0;"><tspan x="0" y="0" dy="0" style="font-family: Arial, sans-serif; font-size: 10px; fill: black; font-weight: normal;">Otro Trago</tspan></text></g><g transform="translate(308,73)"><text x="0" y="0" text-anchor="middle" dominant-baseline="text-before-edge" transform="translate(0,-6)" style="stroke-width: 2px; paint-order: stroke; stroke: white; stroke-linecap: round; stroke-linejoin: round; opacity: 0;"><tspan x="0" y="0" dy="0" style="font-family: Arial, sans-serif; font-size: 10px; fill: black; font-weight: normal;">fuck, i'm lonely (with Anne-Marie) - from “13 Reasons Why: Season 3”</tspan></text></g><g transform="translate(399,171)"><text x="0" y="0" text-anchor="middle" dominant-baseline="text-before-edge" transform="translate(0,-6)" style="stroke-width: 2px; paint-order: stroke; stroke: white; stroke-linecap: round; stroke-linejoin: round; opacity: 1;"><tspan x="0" y="0" dy="0" style="font-family: Arial, sans-serif; font-size: 10px; fill: black; font-weight: normal;">Higher Love</tspan></text></g><g transform="translate(361,269)"><text x="0" y="0" text-anchor="middle" dominant-baseline="text-before-edge" transform="translate(0,-6)" style="stroke-width: 2px; paint-order: stroke; stroke: white; stroke-linecap: round; stroke-linejoin: round; opacity: 1;"><tspan x="0" y="0" dy="0" style="font-family: Arial, sans-serif; font-size: 10px; fill: black; font-weight: normal;">Shallow</tspan></text></g><g transform="translate(305,0)"><text x="0" y="0" text-anchor="middle" dominant-baseline="text-before-edge" transform="translate(0,-6)" style="stroke-width: 2px; paint-order: stroke; stroke: white; stroke-linecap: round; stroke-linejoin: round; opacity: 1;"><tspan x="0" y="0" dy="0" style="font-family: Arial, sans-serif; font-size: 10px; fill: black; font-weight: normal;">Talk</tspan></text></g><g transform="translate(318,188)"><text x="0" y="0" text-anchor="middle" dominant-baseline="text-before-edge" transform="translate(0,-6)" style="stroke-width: 2px; paint-order: stroke; stroke: white; stroke-linecap: round; stroke-linejoin: round; opacity: 1;"><tspan x="0" y="0" dy="0" style="font-family: Arial, sans-serif; font-size: 10px; fill: black; font-weight: normal;">Te Robaré</tspan></text></g><g transform="translate(355,171)"><text x="0" y="0" text-anchor="middle" dominant-baseline="text-before-edge" transform="translate(0,-6)" style="stroke-width: 2px; paint-order: stroke; stroke: white; stroke-linecap: round; stroke-linejoin: round; opacity: 0;"><tspan x="0" y="0" dy="0" style="font-family: Arial, sans-serif; font-size: 10px; fill: black; font-weight: normal;">Happier</tspan></text></g><g transform="translate(367,253)"><text x="0" y="0" text-anchor="middle" dominant-baseline="text-before-edge" transform="translate(0,-6)" style="stroke-width: 2px; paint-order: stroke; stroke: white; stroke-linecap: round; stroke-linejoin: round; opacity: 1;"><tspan x="0" y="0" dy="0" style="font-family: Arial, sans-serif; font-size: 10px; fill: black; font-weight: normal;">Call You Mine</tspan></text></g><g transform="translate(330,122)"><text x="0" y="0" text-anchor="middle" dominant-baseline="text-before-edge" transform="translate(0,-6)" style="stroke-width: 2px; paint-order: stroke; stroke: white; stroke-linecap: round; stroke-linejoin: round; opacity: 0;"><tspan x="0" y="0" dy="0" style="font-family: Arial, sans-serif; font-size: 10px; fill: black; font-weight: normal;">Cross Me (feat. Chance the Rapper &amp; PnB Rock)</tspan></text></g><g transform="translate(283,114)"><text x="0" y="0" text-anchor="middle" dominant-baseline="text-before-edge" transform="translate(0,-6)" style="stroke-width: 2px; paint-order: stroke; stroke: white; stroke-linecap: round; stroke-linejoin: round; opacity: 1;"><tspan x="0" y="0" dy="0" style="font-family: Arial, sans-serif; font-size: 10px; fill: black; font-weight: normal;">Señorita</tspan></text></g><g transform="translate(268,408)"><text x="0" y="0" text-anchor="middle" dominant-baseline="text-before-edge" transform="translate(0,-6)" style="stroke-width: 2px; paint-order: stroke; stroke: white; stroke-linecap: round; stroke-linejoin: round; opacity: 1;"><tspan x="0" y="0" dy="0" style="font-family: Arial, sans-serif; font-size: 10px; fill: black; font-weight: normal;">boyfriend (with Social House)</tspan></text></g><g transform="translate(234,261)"><text x="0" y="0" text-anchor="middle" dominant-baseline="text-before-edge" transform="translate(0,-6)" style="stroke-width: 2px; paint-order: stroke; stroke: white; stroke-linecap: round; stroke-linejoin: round; opacity: 1;"><tspan x="0" y="0" dy="0" style="font-family: Arial, sans-serif; font-size: 10px; fill: black; font-weight: normal;">Goodbyes (Feat. Young Thug)</tspan></text></g><g transform="translate(177,16)"><text x="0" y="0" text-anchor="middle" dominant-baseline="text-before-edge" transform="translate(0,-6)" style="stroke-width: 2px; paint-order: stroke; stroke: white; stroke-linecap: round; stroke-linejoin: round; opacity: 0;"><tspan x="0" y="0" dy="0" style="font-family: Arial, sans-serif; font-size: 10px; fill: black; font-weight: normal;">Old Town Road - Remix</tspan></text></g><g transform="translate(265,65)"><text x="0" y="0" text-anchor="middle" dominant-baseline="text-before-edge" transform="translate(0,-6)" style="stroke-width: 2px; paint-order: stroke; stroke: white; stroke-linecap: round; stroke-linejoin: round; opacity: 0;"><tspan x="0" y="0" dy="0" style="font-family: Arial, sans-serif; font-size: 10px; fill: black; font-weight: normal;">Loco Contigo (feat. J. Balvin &amp; Tyga)</tspan></text></g><g transform="translate(255,326)"><text x="0" y="0" text-anchor="middle" dominant-baseline="text-before-edge" transform="translate(0,-6)" style="stroke-width: 2px; paint-order: stroke; stroke: white; stroke-linecap: round; stroke-linejoin: round; opacity: 1;"><tspan x="0" y="0" dy="0" style="font-family: Arial, sans-serif; font-size: 10px; fill: black; font-weight: normal;">Someone You Loved</tspan></text></g><g transform="translate(181,114)"><text x="0" y="0" text-anchor="middle" dominant-baseline="text-before-edge" transform="translate(0,-6)" style="stroke-width: 2px; paint-order: stroke; stroke: white; stroke-linecap: round; stroke-linejoin: round; opacity: 0;"><tspan x="0" y="0" dy="0" style="font-family: Arial, sans-serif; font-size: 10px; fill: black; font-weight: normal;">Sunflower - Spider-Man: Into the Spider-Verse</tspan></text></g><g transform="translate(190,49)"><text x="0" y="0" text-anchor="middle" dominant-baseline="text-before-edge" transform="translate(0,-6)" style="stroke-width: 2px; paint-order: stroke; stroke: white; stroke-linecap: round; stroke-linejoin: round; opacity: 1;"><tspan x="0" y="0" dy="0" style="font-family: Arial, sans-serif; font-size: 10px; fill: black; font-weight: normal;">Lalala</tspan></text></g><g transform="translate(227,147)"><text x="0" y="0" text-anchor="middle" dominant-baseline="text-before-edge" transform="translate(0,-6)" style="stroke-width: 2px; paint-order: stroke; stroke: white; stroke-linecap: round; stroke-linejoin: round; opacity: 1;"><tspan x="0" y="0" dy="0" style="font-family: Arial, sans-serif; font-size: 10px; fill: black; font-weight: normal;">Truth Hurts</tspan></text></g><g transform="translate(165,179)"><text x="0" y="0" text-anchor="middle" dominant-baseline="text-before-edge" transform="translate(0,-6)" style="stroke-width: 2px; paint-order: stroke; stroke: white; stroke-linecap: round; stroke-linejoin: round; opacity: 1;"><tspan x="0" y="0" dy="0" style="font-family: Arial, sans-serif; font-size: 10px; fill: black; font-weight: normal;">Piece Of Your Heart</tspan></text></g><g transform="translate(283,171)"><text x="0" y="0" text-anchor="middle" dominant-baseline="text-before-edge" transform="translate(0,-6)" style="stroke-width: 2px; paint-order: stroke; stroke: white; stroke-linecap: round; stroke-linejoin: round; opacity: 0;"><tspan x="0" y="0" dy="0" style="font-family: Arial, sans-serif; font-size: 10px; fill: black; font-weight: normal;">If I Can't Have You</tspan></text></g><g transform="translate(246,98)"><text x="0" y="0" text-anchor="middle" dominant-baseline="text-before-edge" transform="translate(0,-6)" style="stroke-width: 2px; paint-order: stroke; stroke: white; stroke-linecap: round; stroke-linejoin: round; opacity: 1;"><tspan x="0" y="0" dy="0" style="font-family: Arial, sans-serif; font-size: 10px; fill: black; font-weight: normal;">7 rings</tspan></text></g><g transform="translate(237,98)"><text x="0" y="0" text-anchor="middle" dominant-baseline="text-before-edge" transform="translate(0,-6)" style="stroke-width: 2px; paint-order: stroke; stroke: white; stroke-linecap: round; stroke-linejoin: round; opacity: 0;"><tspan x="0" y="0" dy="0" style="font-family: Arial, sans-serif; font-size: 10px; fill: black; font-weight: normal;">0.9583333333</tspan></text></g><g transform="translate(199,196)"><text x="0" y="0" text-anchor="middle" dominant-baseline="text-before-edge" transform="translate(0,-6)" style="stroke-width: 2px; paint-order: stroke; stroke: white; stroke-linecap: round; stroke-linejoin: round; opacity: 0;"><tspan x="0" y="0" dy="0" style="font-family: Arial, sans-serif; font-size: 10px; fill: black; font-weight: normal;">Summer Days (feat. Macklemore &amp; Patrick Stump of Fall Out Boy)</tspan></text></g><g transform="translate(193,147)"><text x="0" y="0" text-anchor="middle" dominant-baseline="text-before-edge" transform="translate(0,-6)" style="stroke-width: 2px; paint-order: stroke; stroke: white; stroke-linecap: round; stroke-linejoin: round; opacity: 0;"><tspan x="0" y="0" dy="0" style="font-family: Arial, sans-serif; font-size: 10px; fill: black; font-weight: normal;">Antisocial (with Travis Scott)</tspan></text></g><g transform="translate(252,49)"><text x="0" y="0" text-anchor="middle" dominant-baseline="text-before-edge" transform="translate(0,-6)" style="stroke-width: 2px; paint-order: stroke; stroke: white; stroke-linecap: round; stroke-linejoin: round; opacity: 1;"><tspan x="0" y="0" dy="0" style="font-family: Arial, sans-serif; font-size: 10px; fill: black; font-weight: normal;">Sucker</tspan></text></g><g transform="translate(221,106)"><text x="0" y="0" text-anchor="middle" dominant-baseline="text-before-edge" transform="translate(0,-6)" style="stroke-width: 2px; paint-order: stroke; stroke: white; stroke-linecap: round; stroke-linejoin: round; opacity: 0;"><tspan x="0" y="0" dy="0" style="font-family: Arial, sans-serif; font-size: 10px; fill: black; font-weight: normal;">You Need To Calm Down</tspan></text></g><g transform="translate(193,16)"><text x="0" y="0" text-anchor="middle" dominant-baseline="text-before-edge" transform="translate(0,-6)" style="stroke-width: 2px; paint-order: stroke; stroke: white; stroke-linecap: round; stroke-linejoin: round; opacity: 1;"><tspan x="0" y="0" dy="0" style="font-family: Arial, sans-serif; font-size: 10px; fill: black; font-weight: normal;">Con Altura</tspan></text></g><g transform="translate(255,196)"><text x="0" y="0" text-anchor="middle" dominant-baseline="text-before-edge" transform="translate(0,-6)" style="stroke-width: 2px; paint-order: stroke; stroke: white; stroke-linecap: round; stroke-linejoin: round; opacity: 0;"><tspan x="0" y="0" dy="0" style="font-family: Arial, sans-serif; font-size: 10px; fill: black; font-weight: normal;">One Thing Right</tspan></text></g><g transform="translate(97,122)"><text x="0" y="0" text-anchor="middle" dominant-baseline="text-before-edge" transform="translate(0,-6)" style="stroke-width: 2px; paint-order: stroke; stroke: white; stroke-linecap: round; stroke-linejoin: round; opacity: 1;"><tspan x="0" y="0" dy="0" style="font-family: Arial, sans-serif; font-size: 10px; fill: black; font-weight: normal;">Ransom</tspan></text></g><g transform="translate(47,163)"><text x="0" y="0" text-anchor="middle" dominant-baseline="text-before-edge" transform="translate(0,-6)" style="stroke-width: 2px; paint-order: stroke; stroke: white; stroke-linecap: round; stroke-linejoin: round; opacity: 1;"><tspan x="0" y="0" dy="0" style="font-family: Arial, sans-serif; font-size: 10px; fill: black; font-weight: normal;">Panini</tspan></text></g></g></g><g id="legend" transform="translate(805,50)"><g transform="translate(5,0)"><g class="legendSize" transform="translate(0,0)"><g class="legendCells" transform="translate(10,16.5)"><g class="cell" transform="translate(0, 6)"><circle class="swatch" r="6" fill="none" stroke="#ccc"/><text class="label" transform="translate( 15,&#xA;          5)" font-family="&quot;Arial&quot;, sans-serif" font-size="10px"><tspan x="0" dy="0em">115.0</tspan></text></g><g class="cell" transform="translate(0, 32)"><circle class="swatch" r="10" fill="none" stroke="#ccc"/><text class="label" transform="translate( 15,&#xA;          5)" font-family="&quot;Arial&quot;, sans-serif" font-size="10px"><tspan x="0" dy="0em">309.0</tspan></text></g></g><text class="legendTitle" font-family="&quot;Arial&quot;, sans-serif" font-size="12px" font-weight="bold"><tspan x="0" dy="0em">Length.</tspan></text></g><g class="legendColor" transform="translate(0,91.5)"><g class="legendCells" transform="translate(0,16.5)"><g class="cell" transform="translate(0, 0)"><rect class="swatch" height="15" width="15" style="fill: rgb(158, 1, 66);"/><text class="label" transform="translate( 20, 12.5)" font-family="&quot;Arial&quot;, sans-serif" font-size="10px"><tspan x="0" dy="0em">atl hip hop</tspan></text></g><g class="cell" transform="translate(0, 21.5)"><rect class="swatch" height="15" width="15" style="fill: rgb(185, 31, 72);"/><text class="label" transform="translate( 20, 12.5)" font-family="&quot;Arial&quot;, sans-serif" font-size="10px"><tspan x="0" dy="0em">australian pop</tspan></text></g><g class="cell" transform="translate(0, 43)"><rect class="swatch" height="15" width="15" style="fill: rgb(209, 60, 75);"/><text class="label" transform="translate( 20, 12.5)" font-family="&quot;Arial&quot;, sans-serif" font-size="10px"><tspan x="0" dy="0em">big room</tspan></text></g><g class="cell" transform="translate(0, 64.5)"><rect class="swatch" height="15" width="15" style="fill: rgb(228, 86, 73);"/><text class="label" transform="translate( 20, 12.5)" font-family="&quot;Arial&quot;, sans-serif" font-size="10px"><tspan x="0" dy="0em">boy band</tspan></text></g><g class="cell" transform="translate(0, 86)"><rect class="swatch" height="15" width="15" style="fill: rgb(240, 112, 74);"/><text class="label" transform="translate( 20, 12.5)" font-family="&quot;Arial&quot;, sans-serif" font-size="10px"><tspan x="0" dy="0em">brostep</tspan></text></g><g class="cell" transform="translate(0, 107.5)"><rect class="swatch" height="15" width="15" style="fill: rgb(248, 142, 83);"/><text class="label" transform="translate( 20, 12.5)" font-family="&quot;Arial&quot;, sans-serif" font-size="10px"><tspan x="0" dy="0em">canadian hip hop</tspan></text></g><g class="cell" transform="translate(0, 129)"><rect class="swatch" height="15" width="15" style="fill: rgb(252, 172, 99);"/><text class="label" transform="translate( 20, 12.5)" font-family="&quot;Arial&quot;, sans-serif" font-size="10px"><tspan x="0" dy="0em">canadian pop</tspan></text></g><g class="cell" transform="translate(0, 150.5)"><rect class="swatch" height="15" width="15" style="fill: rgb(253, 198, 118);"/><text class="label" transform="translate( 20, 12.5)" font-family="&quot;Arial&quot;, sans-serif" font-size="10px"><tspan x="0" dy="0em">country rap</tspan></text></g><g class="cell" transform="translate(0, 172)"><rect class="swatch" height="15" width="15" style="fill: rgb(254, 221, 141);"/><text class="label" transform="translate( 20, 12.5)" font-family="&quot;Arial&quot;, sans-serif" font-size="10px"><tspan x="0" dy="0em">dance pop</tspan></text></g><g class="cell" transform="translate(0, 193.5)"><rect class="swatch" height="15" width="15" style="fill: rgb(254, 238, 163);"/><text class="label" transform="translate( 20, 12.5)" font-family="&quot;Arial&quot;, sans-serif" font-size="10px"><tspan x="0" dy="0em">dfw rap</tspan></text></g><g class="cell" transform="translate(0, 215)"><rect class="swatch" height="15" width="15" style="fill: rgb(251, 248, 176);"/><text class="label" transform="translate( 20, 12.5)" font-family="&quot;Arial&quot;, sans-serif" font-size="10px"><tspan x="0" dy="0em">edm</tspan></text></g><g class="cell" transform="translate(0, 236.5)"><rect class="swatch" height="15" width="15" style="fill: rgb(241, 249, 171);"/><text class="label" transform="translate( 20, 12.5)" font-family="&quot;Arial&quot;, sans-serif" font-size="10px"><tspan x="0" dy="0em">electropop</tspan></text></g><g class="cell" transform="translate(0, 258)"><rect class="swatch" height="15" width="15" style="fill: rgb(224, 243, 161);"/><text class="label" transform="translate( 20, 12.5)" font-family="&quot;Arial&quot;, sans-serif" font-size="10px"><tspan x="0" dy="0em">escape room</tspan></text></g><g class="cell" transform="translate(0, 279.5)"><rect class="swatch" height="15" width="15" style="fill: rgb(200, 233, 159);"/><text class="label" transform="translate( 20, 12.5)" font-family="&quot;Arial&quot;, sans-serif" font-size="10px"><tspan x="0" dy="0em">latin</tspan></text></g><g class="cell" transform="translate(0, 301)"><rect class="swatch" height="15" width="15" style="fill: rgb(169, 221, 162);"/><text class="label" transform="translate( 20, 12.5)" font-family="&quot;Arial&quot;, sans-serif" font-size="10px"><tspan x="0" dy="0em">panamanian pop</tspan></text></g><g class="cell" transform="translate(0, 322.5)"><rect class="swatch" height="15" width="15" style="fill: rgb(137, 207, 165);"/><text class="label" transform="translate( 20, 12.5)" font-family="&quot;Arial&quot;, sans-serif" font-size="10px"><tspan x="0" dy="0em">pop</tspan></text></g><g class="cell" transform="translate(0, 344)"><rect class="swatch" height="15" width="15" style="fill: rgb(105, 189, 169);"/><text class="label" transform="translate( 20, 12.5)" font-family="&quot;Arial&quot;, sans-serif" font-size="10px"><tspan x="0" dy="0em">pop house</tspan></text></g><g class="cell" transform="translate(0, 365.5)"><rect class="swatch" height="15" width="15" style="fill: rgb(78, 164, 176);"/><text class="label" transform="translate( 20, 12.5)" font-family="&quot;Arial&quot;, sans-serif" font-size="10px"><tspan x="0" dy="0em">r&amp;b en espanol</tspan></text></g><g class="cell" transform="translate(0, 387)"><rect class="swatch" height="15" width="15" style="fill: rgb(66, 136, 181);"/><text class="label" transform="translate( 20, 12.5)" font-family="&quot;Arial&quot;, sans-serif" font-size="10px"><tspan x="0" dy="0em">reggaeton</tspan></text></g><g class="cell" transform="translate(0, 408.5)"><rect class="swatch" height="15" width="15" style="fill: rgb(74, 108, 174);"/><text class="label" transform="translate( 20, 12.5)" font-family="&quot;Arial&quot;, sans-serif" font-size="10px"><tspan x="0" dy="0em">reggaeton flow</tspan></text></g><g class="cell" transform="translate(0, 430)"><rect class="swatch" height="15" width="15" style="fill: rgb(94, 79, 162);"/><text class="label" transform="translate( 20, 12.5)" font-family="&quot;Arial&quot;, sans-serif" font-size="10px"><tspan x="0" dy="0em">trap music</tspan></text></g></g><text class="legendTitle" font-family="&quot;Arial&quot;, sans-serif" font-size="12px" font-weight="bold"><tspan x="0" dy="0em">Genre</tspan></text></g></g></g></svg>